<svg width="20" height="20" viewBox="0 0 20 20" fill="none" xmlns="http://www.w3.org/2000/svg">
<path d="M9.94859 5.89062C7.47945 5.89062 5.43359 7.90121 5.43359 10.4056C5.43359 12.91 7.44418 14.9206 9.94859 14.9206C12.453 14.9206 14.4636 12.8748 14.4636 10.4056C14.4636 7.93648 12.4177 5.89062 9.94859 5.89062ZM9.94859 13.298C8.36128 13.298 7.05617 11.9929 7.05617 10.4056C7.05617 8.81831 8.36128 7.5132 9.94859 7.5132C11.5359 7.5132 12.841 8.81831 12.841 10.4056C12.841 11.9929 11.5359 13.298 9.94859 13.298Z" fill="#404040"/>
<path d="M14.6401 6.8077C15.2051 6.8077 15.663 6.34972 15.663 5.78477C15.663 5.21982 15.2051 4.76184 14.6401 4.76184C14.0752 4.76184 13.6172 5.21982 13.6172 5.78477C13.6172 6.34972 14.0752 6.8077 14.6401 6.8077Z" fill="#404040"/>
<path d="M17.2839 3.13932C16.3668 2.18694 15.0617 1.69312 13.5802 1.69312H6.31386C3.24507 1.69312 1.19922 3.73897 1.19922 6.80775V14.0388C1.19922 15.5555 1.69305 16.8607 2.6807 17.813C3.63308 18.7302 4.90292 19.1887 6.34913 19.1887H13.5449C15.0617 19.1887 16.3315 18.6949 17.2486 17.813C18.201 16.8959 18.6948 15.5908 18.6948 14.0741V6.80775C18.6948 5.32627 18.201 4.05643 17.2839 3.13932ZM17.1428 14.0741C17.1428 15.1675 16.7548 16.0494 16.1199 16.649C15.4849 17.2487 14.6031 17.5661 13.5449 17.5661H6.34913C5.29093 17.5661 4.4091 17.2487 3.77417 16.649C3.13925 16.0141 2.82179 15.1323 2.82179 14.0388V6.80775C2.82179 5.74955 3.13925 4.86772 3.77417 4.2328C4.37382 3.63315 5.29093 3.31569 6.34913 3.31569H13.6154C14.6736 3.31569 15.5555 3.63315 16.1904 4.26807C16.79 4.90299 17.1428 5.78483 17.1428 6.80775V14.0741Z" fill="#404040"/>
</svg>
