<svg width="20" height="20" viewBox="0 0 20 20" fill="none" xmlns="http://www.w3.org/2000/svg">
<path fill-rule="evenodd" clip-rule="evenodd" d="M7.14062 15V8.31641H4.99609V15H7.14062ZM6.14844 7.30469C6.86328 7.30469 7.30859 6.79297 7.30859 6.15234C7.29688 5.5 6.86328 5 6.16016 5C5.45703 5 5 5.5 5 6.15234C5 6.79297 5.44531 7.30469 6.13281 7.30469H6.14844Z" fill="#404040"/>
<path fill-rule="evenodd" clip-rule="evenodd" d="M12.5234 8.16406C11.3867 8.16406 10.8984 8.80469 10.5859 9.25V8.32031H8.4375V15H10.5859V11.1953C10.5859 11 10.6016 10.8047 10.6602 10.668C10.8164 10.2773 11.168 9.875 11.7617 9.875C12.5391 9.875 12.8516 10.4727 12.8516 11.3477V15H15V11.0977C15 9.09375 13.9375 8.16406 12.5234 8.16406Z" fill="#404040"/>
<path d="M16.2969 2.5H3.78125C3.09766 2.5 2.5 2.99219 2.5 3.66797V16.2109C2.5 16.8906 3.09766 17.4961 3.78125 17.4961H16.293C16.9805 17.4961 17.4961 16.8867 17.4961 16.2109V3.66797C17.5 2.99219 16.9805 2.5 16.2969 2.5ZM16.1719 16.25C16.1289 16.25 3.94141 16.25 3.87109 16.25C3.80078 16.25 3.75 16.1953 3.75 16.1289C3.75 16.0625 3.75 3.87109 3.75 3.82812C3.75 3.78516 3.78906 3.75 3.82812 3.75C3.86719 3.75 16.1328 3.75 16.1719 3.75C16.2109 3.75 16.25 3.78906 16.25 3.82812C16.25 4.73828 16.25 16.1289 16.25 16.1719C16.25 16.207 16.2148 16.25 16.1719 16.25Z" fill="#404040"/>
</svg>
